<?xml version="1.0" encoding="UTF-8" ?>
<svg width="390" height="390" viewBox="0 0 390 390" version="1.1" xmlns="http://www.w3.org/2000/svg" xmlns:svg="http://www.w3.org/2000/svg"><path d="m 77.218548,19.097943 c -7.732,1.378 -18.403,5.276 -24.956,9.117 -8.62,5.052 -22.976,19.916 -27.369,28.337 -7.272,13.942 -10.105,31.112 -7.883,47.774997 4.167,31.25 24.965,59.173 57.587,77.316 l 7,3.893 -21,0.5 -21,0.5 -0.298,5.121 c -0.256,4.407 -0.02,5.193 1.692,5.641 2.646,0.692 61.700992,-0.943 65.855992,-1.823 1.988,-0.422 3.25,-0.294 3.25,0.328 0,0.56 -3.262,1.798 -7.25,2.752 -15.504992,3.709 -32.108992,12.13 -47.282992,23.978 -18.784,14.668 -32.599,35.311 -37.56,56.126 -2.872,12.049 -2.897,29.745 -0.058,40.521 5.163,19.59 18.69,36.214 36.79,45.21 10.895,5.415 18.81,7.015 34.361,6.947 20.957992,-0.093 36.788992,-4.96 54.388992,-16.722 8.305,-5.55 21.235,-17.85 26.485,-25.192 9.596,-13.422 16.737,-29.18 19.711,-43.494 0.959,-4.616 2.12,-8.82 2.579,-9.343 1.363,-1.548 0.932,7.501 -0.637,13.398 -1.329,4.991 -1.751,17.717 -1.569,47.302 l 0.042,6.75 3.75,-0.015 c 2.063,-0.009 4.302,-0.366 4.977,-0.795 0.879,-0.559 1.304,-6.003 1.5,-19.235 0.262,-17.682 0.358,-18.467 2.304,-18.746 1.557,-0.223 2.57,0.827 4.343,4.5 6.834,14.164 22.017,32.544 35.126,42.522 22.52,17.142 55.495,23.691 81.211,16.129 17.388,-5.113 33.965,-18.84 41.492,-34.36 5.619,-11.587 7.297,-19.216 7.297,-33.186 0,-13.951 -2.784,-26.291 -8.856,-39.247 -13.903,-29.668 -39.406,-50.95 -76.144,-63.539 -5.225,-1.791 -10.175,-3.934 -11,-4.762 -1.75,-1.758 -1.302,-1.694 11.023,1.567 7.318,1.936 23.591,2.628 53.227,2.262 l 7.75,-0.095 v -5.479 -5.48 l -20.201,-0.27 -20.201,-0.271 11.451,-6.758 c 23.917,-14.114 39.064,-30.498 48.464,-52.423 8.298,-19.354 8.757,-44.467997 1.157,-63.283997 -6.393,-15.829 -18.469,-29.595 -32.22,-36.729 -12.275,-6.368 -17.976,-7.732 -32.45,-7.762 -16.608,-0.034 -29.501,3.107 -45.035,10.971 -15.946,8.073 -34.902,24.899 -44.942,39.892 -5.572,8.319 -13.779,24.665 -16.934,33.724997 -1.527,4.388 -2.004,5.003 -2.612,3.368 -2.878,-7.745996 -9.446,-21.151997 -14.142,-28.860997 -21.732,-35.685 -54.272,-57.325 -88.834992,-59.079 -4.95,-0.251 -11.421,-0.025 -14.379,0.502 m -0.121,20.963 c -6.307,1.316 -17.634,7.16 -23.178,11.959 -6.138,5.312 -12.084,14.345 -14.977,22.75 -1.881,5.465 -2.319,8.785 -2.278,17.266 0.18,37.532997 28.339,70.826997 71.432992,84.460997 11.193,3.541 34.293,8.42 43.581,9.205 l 7.399,0.626 1.595,-3.818 c 3.228,-7.725 2.856,-8.437 -6.075,-11.624 -26.926,-9.61 -44.211,-17.791 -53.82,-25.471 -7.453992,-5.958 -15.137992,-16.885 -17.694992,-25.162 -3.857,-12.49 -1.91,-22.471997 5.687,-29.159997 6.095,-5.365 12.480992,-7.355 22.145992,-6.903 9.683,0.454 20.029,5.092 28.354,12.712 7.4,6.773997 11.021,12.371997 23.646,36.558997 15.666,30.015 15.327,29.62 22.333,25.997 3.511,-1.816 3.508,-2.04 -0.303,-21.422 -9.283,-47.212997 -38.851,-83.895997 -77.348,-95.961997 -7.932996,-2.486 -23.353992,-3.504 -30.499992,-2.013 m 209.499992,0.902 c -18.266,4.644 -33.993,14.312 -48.777,29.984 -15.97,16.929 -25.189,35.845997 -33.135,67.989997 -5.286,21.386 -5.297,19.67 0.131,21.519 2.551,0.869 5.211,1.58 5.913,1.58 0.702,0 6.298,-10.012 12.436,-22.25 16.665,-33.222 23.337,-42.336997 36.346,-49.649997 24.607,-13.832 49.695,-3.915 49.565,19.592997 -0.032,5.798 -4.256,16.541 -9.253,23.533 -9.31,13.027 -20.405,19.942 -51.976,32.39 -11.963,4.716 -21.928,8.87 -22.146,9.23 -0.217,0.36 0.489,3.017 1.57,5.904 2.354,6.288 2.535,6.317 19.901,3.198 52.605,-9.446 83.395,-28.155 99.763,-60.619 12.289,-24.373996 9.639,-51.091997 -6.806,-68.615997 -10.697,-11.398 -21.182,-15.772 -37.492,-15.639 -5.129,0.041 -12.068,0.843 -16.04,1.853 m -98.103,8.772 c -0.382,2.035 -0.396,11.822 -0.032,21.75 0.586,15.985 0.92,18.557 2.918,22.474 1.241,2.433 2.751,4.588001 3.354,4.789001 0.604,0.202 1.833,-1.182001 2.73,-3.074001 1.364,-2.874 1.633,-7.245 1.633,-26.539 v -23.099 h -4.955 c -4.921,0 -4.959,0.025 -5.648,3.699 m -86.983,55.895997 c 2.139,8.776 14.994,25.027 26.018,32.894 7.288,5.2 30.666,18.746 31.286,18.127 0.944,-0.945 -22.5,-32.497 -28.792,-38.75 -7.114,-7.069 -18.099,-13.379 -25.323,-14.546 -3.891,-0.628 -3.896,-0.625 -3.189,2.275 m 177.367,-0.196 c -13.901,5.717 -21.956,13.388 -37.124,35.351 -5.793,8.387 -10.327,15.25 -10.077,15.25 0.991,0 19.385,-10.642 27.007,-15.625 4.449,-2.908 11.07,-8.448 14.715,-12.312 6.213,-6.587 15.698,-20.962 15.698,-23.792 0,-1.918 -3.845,-1.493 -10.219,1.128 m -137.781,99.584 c -19.404,3.319 -30.95,6.906 -45.364996,14.094 -33.885996,16.898 -55.911996,44.27 -59.788996,74.301 -3.14,24.331 10.783,47.357 33.735,55.788 8.653,3.178 27.697996,3.181 38.839992,0.004 10.723,-3.057 25.562,-10.903 34.2,-18.084 13.26,-11.024 25.85,-30.84 33.346,-52.484 3.56,-10.281 7.758,-30.053 8.669,-40.83 l 0.629,-7.438 -4.808,-1.346 c -6.037,-1.69 -4.876,-3.317 -18.556,26.001 -13.985,29.974 -18.204,36.127 -29.786,43.438 -11.847,7.479 -28.805,8.766 -39.072992,2.965 -2.969,-1.677 -6.703,-4.911 -8.435,-7.303 -2.937,-4.058 -3.107,-4.794 -3.107,-13.441 0,-8.174 0.333,-9.851 3.128,-15.75 3.84,-8.104 14.052996,-19.213 23.252992,-25.292 9.289,-6.139 17.994,-10.286 37.869,-18.04 12.81,-4.998 17.244,-7.159 17.228,-8.398 -0.012,-0.917 -0.89,-3.581 -1.951,-5.918 -1.794,-3.951 -2.196,-4.243 -5.728,-4.157 -2.089,0.052 -8.524,0.902 -14.299,1.89 m 86.878,2.559 c -1.104,2.498 -1.867,5.27 -1.693,6.159 0.206,1.057 6.382,4.096 17.815,8.766 29.519,12.057 39.177,17.528 49.648,28.122 11.305,11.437 16.991,27.884 13.402,38.76 -1.706,5.169 -8.265,11.211 -14.873,13.701 -4.683,1.765 -7.253,2.07 -14.677,1.74 -12.236,-0.544 -20.173,-4.286 -30.114,-14.199 -6.794,-6.774 -7.681,-8.242 -19.698,-32.592 -6.922,-14.025 -13.427,-26.551 -14.456,-27.836 -1.738,-2.17 -2.175,-2.256 -6.103,-1.198 -2.328,0.627 -4.49,1.812 -4.805,2.633 -1.024,2.67 4.424,31.659 8.069,42.934 10.294,31.844 30.487,56.665 56.107,68.968 12.378,5.944 20.598,7.842 34,7.851 12.791,0.009 21.201,-2.391 30.864,-8.805 15.351,-10.189 23.502,-29.361 20.682,-48.647 -4.545,-31.077 -25.613,-57.759 -58.589,-74.198 -16.086,-8.018 -47.153,-16.7 -59.763,-16.701 -3.555,0 -3.939,0.3 -5.816,4.542 m 5.122,25.939 c 0,0.33 0.847,1.819 1.881,3.309 1.035,1.491 5.803,8.718 10.596,16.061 12.941,19.825 22.503,28.163 37.273,32.5 6.605,1.939 6.726,1.251 1.52,-8.656 -5.683,-10.816 -16.77,-21.449 -34.27,-32.866 -17.295,-11.284 -17,-11.104 -17,-10.348 m -85.5,4.187 c -10.465,6.085 -22.019,14.205 -28.307,19.895 -8.35,7.557 -18.193,22.774 -18.193,28.127 0,1.882 2.217,1.233 12.815,-3.75 10.955,-5.151 17.032,-11.359 29.802,-30.44 11.803,-17.636 11.735,-17.526 10.692,-17.411 -0.445,0.05 -3.509,1.66 -6.809,3.579" stroke="none" fill="currentColor" fill-rule="evenodd" /></svg>
